<?xml version="1.0" encoding="UTF-8"?>
<svg width="98px" height="97px" viewBox="0 0 98 97" version="1.1" xmlns="http://www.w3.org/2000/svg" xmlns:xlink="http://www.w3.org/1999/xlink">
    <!-- Generator: Sketch 42 (36781) - http://www.bohemiancoding.com/sketch -->
    <title>WEB/avatar_man</title>
    <desc>Created with Sketch.</desc>
    <defs>
        <polygon id="path-1" points="0 0.0104861528 0 75.7841797 66.8247892 75.7841797 66.8247892 0.0104861528"></polygon>
    </defs>
    <g id="Tablet-and-display" stroke="none" stroke-width="1" fill="none" fill-rule="evenodd">
        <g id="Desktop-landing-Copy-6" transform="translate(-246.000000, -1830.000000)">
            <g id="WEB/avatar1" transform="translate(246.000000, 1830.000000)">
                <g id="Group-22">
                    <g id="Avatar-noi-gorra" fill="#CADCFF">
                        <g id="Group-3" transform="translate(0.000000, 0.021020)">
                            <path d="M48.7747714,96.7996527 C21.8372771,96.7996527 0,75.1665022 0,48.4806265 C0,21.7947507 21.8372771,0.161782984 48.7747714,0.161782984 C75.7124503,0.161782984 97.5497274,21.7947507 97.5497274,48.4806265 C97.5497274,75.1665022 75.7124503,96.7996527 48.7747714,96.7996527 Z" id="Fill-1"></path>
                        </g>
                    </g>
                    <g id="Page-1" transform="translate(15.338028, 11.154930)">
                        <g id="Group-3" transform="translate(0.000000, 0.505228)">
                            <mask id="mask-2" fill="white">
                                <use xlink:href="#path-1"></use>
                            </mask>
                            <g id="Clip-2"></g>
                            <path d="M66.8247892,45.4093134 C66.8247892,41.527823 64.0438909,38.2912714 60.3877988,37.6164313 L60.3877988,13.7124513 C60.3877988,10.6114864 58.8591477,7.73632745 56.2979418,6.02216148 C53.8925643,4.41213432 50.9067899,4.04661743 48.2071266,5.00655037 L39.3167329,1.96177918 C32.4853178,-0.378250698 25.2942201,-0.618491703 18.521049,1.26734863 C9.65466819,3.73574763 4.57108578,8.95557633 3.78683462,16.3757239 C3.09199321,17.3000847 2.54020738,18.337864 2.16570829,19.4581294 L1.475976,21.5177063 C1.10556422,22.6230211 1.51378355,23.7850452 2.49167066,24.408847 C3.46904686,25.0326487 4.68450842,24.9063418 5.51576355,24.0948839 C5.79983107,23.8175242 6.11046606,23.5839852 6.43693934,23.388596 L6.43693934,37.6164313 C2.78084731,38.2912714 -5.10912809e-05,41.527823 -5.10912809e-05,45.4093134 C-5.10912809e-05,49.4459809 3.00769259,52.7851247 6.87990074,53.270762 C7.85267872,58.6890731 10.4077537,63.6872202 14.3152148,67.686769 C19.4166792,72.9086598 26.1990466,75.7843343 33.4126245,75.7843343 L33.4151791,75.7843343 C40.6195606,75.7833033 47.3927316,72.9519651 52.4870432,67.8120448 C56.4660321,63.7965144 59.0492073,58.7478445 59.9892868,53.2650911 C63.8400366,52.7593477 66.8247892,49.4305147 66.8247892,45.4093134" id="Fill-1" fill="#002D5D" mask="url(#mask-2)"></path>
                        </g>
                        <path d="M50.484265,66.296155 C45.9248791,70.8968218 39.8628987,73.4306942 33.4146682,73.4317253 L33.4126245,73.4317253 C26.9633722,73.4317253 20.8967935,70.8576409 16.3322985,66.1858298 C11.7775109,61.5232983 9.26943993,55.3486921 9.26943993,48.7992892 L9.26943993,23.2198087 C10.0710621,23.2801267 10.8670643,23.5420203 11.583364,24.0137382 C17.6453445,28.0050383 24.8992845,29.4511242 32.0101689,28.0849468 C37.7824618,26.9755076 42.9677158,24.1080817 46.9533466,19.8796338 L46.9533466,23.7569999 C46.9533466,29.9604763 51.5939676,35.0875081 57.5552982,35.7974048 L57.5552982,49.0694315 C57.5558091,55.5770757 55.0441618,61.6949727 50.484265,66.296155" id="Fill-4" fill="#FFFFFF"></path>
                        <path d="M18.7504489,44.3748851 C19.4417139,44.3748851 20.091595,44.646574 20.5805385,45.1399444 C20.8574533,45.4188508 21.2196904,45.5585618 21.5819276,45.5585618 C21.9441648,45.5585618 22.3069129,45.4188508 22.5833167,45.1399444 C23.1366353,44.5821316 23.1366353,43.6773613 22.5833167,43.119033 C21.5594475,42.0858935 20.1983757,41.5172544 18.7504489,41.5172544 C17.3030329,41.5172544 15.9414503,42.0858935 14.9180919,43.119033 C14.3647733,43.6768458 14.3647733,44.5816161 14.9180919,45.1399444 C15.4708996,45.6982728 16.3675515,45.6977572 16.9203592,45.1399444 C17.4093027,44.646574 18.0591838,44.3748851 18.7504489,44.3748851" id="Fill-6" fill="#002D5D"></path>
                        <path d="M44.2415747,43.1190845 C43.6882561,43.6768973 43.6882561,44.5816676 44.2415747,45.139996 C44.7943824,45.6978088 45.6910343,45.6978088 46.243842,45.139996 C47.2534057,44.1212916 48.8954795,44.1218072 49.9045322,45.139996 C50.1809361,45.4189024 50.5431733,45.5586134 50.9059213,45.5586134 C51.2686694,45.5586134 51.6309066,45.4189024 51.9073104,45.139996 C52.460629,44.5816676 52.460629,43.6774129 51.9073104,43.1190845 C49.7941751,40.9868167 46.355221,40.9863012 44.2415747,43.1190845" id="Fill-8" fill="#002D5D"></path>
                        <path d="M48.0666767,57.2150451 C39.9860798,65.3688041 26.8387606,65.3688041 18.7581636,57.2150451 C18.2048451,56.6572322 17.308704,56.6572322 16.7553854,57.2150451 C16.2025778,57.7728579 16.2025778,58.6776282 16.7553854,59.2359565 C21.3479806,63.8696178 27.3803281,66.1864484 33.4121647,66.1864484 C39.4450231,66.1864484 45.4768597,63.8696178 50.0694549,59.2359565 C50.6222626,58.6776282 50.6222626,57.7733734 50.0694549,57.2150451 C49.5161363,56.6572322 48.6194844,56.6572322 48.0666767,57.2150451" id="Fill-10" fill="#002D5D"></path>
                        <path d="M54.7323006,8.90871387 C56.5266264,10.1099189 57.5556048,12.0447354 57.5556048,14.2177308 L57.5556048,32.9163171 C53.1602219,32.227042 49.7856428,28.3826703 49.7856428,23.7572577 L49.6681329,8.04673327 C51.3975727,7.5868728 53.200584,7.88330752 54.7323006,8.90871387" id="Fill-12" fill="#4E76FF"></path>
                        <path d="M4.57353816,21.6995883 L4.84892016,20.8778197 C5.56981813,18.7244149 7.17101886,16.9767389 9.24123754,16.0822793 C11.3114562,15.1878198 13.6703407,15.2249386 15.7119482,16.184356 C20.0000394,18.1995965 25.1842716,17.1102634 28.3182108,13.5350029 L28.6692079,13.134945 C29.1872735,12.5436221 29.1326058,11.640914 28.5465888,11.1181578 C27.9610827,10.5954016 27.0659635,10.6505643 26.5478979,11.2413715 L26.1969008,11.6414295 C23.8875749,14.2763475 20.0674799,15.0790412 16.9074842,13.5937743 C14.136804,12.2915237 10.9359353,12.241001 8.1264258,13.4550944 C7.87045849,13.5654197 7.62215487,13.689149 7.37691672,13.8180336 C9.02307778,9.39007229 13.0066649,6.27209461 19.2745432,4.52699633 C25.498483,2.79427097 32.113782,3.0174992 38.406695,5.17296624 L46.8362454,8.05998261 L46.9466026,15.4430114 C43.1929262,20.5927269 37.7190064,24.0787991 31.480761,25.2774265 C25.0933291,26.5044084 18.5766363,25.2057666 13.1318386,21.6207109 C10.4710047,19.8689106 7.1168621,19.9436637 4.57353816,21.6995883" id="Fill-14" fill="#4E76FF"></path>
                        <path d="M2.83214295,45.9145412 C2.83214295,43.6173011 4.35619585,41.6732049 6.4371437,41.0545585 L6.4371437,48.7994954 C6.4371437,49.4686646 6.46115661,50.1337094 6.50764967,50.7951455 C4.39093792,50.1996984 2.83214295,48.2380739 2.83214295,45.9145412" id="Fill-16" fill="#FFFFFF"></path>
                        <path d="M60.3329779,50.7902479 C60.3682309,50.2195466 60.3876455,49.6462677 60.3876455,49.0698955 L60.3876455,41.0543007 C62.4685934,41.6729471 63.9926463,43.6170433 63.9926463,45.9142835 C63.9926463,48.2321452 62.4420259,50.1896454 60.3329779,50.7902479" id="Fill-18" fill="#FFFFFF"></path>
                    </g>
                </g>
            </g>
        </g>
    </g>
</svg>