<?xml version="1.0" encoding="UTF-8"?>
<svg width="146px" height="146px" viewBox="0 0 146 146" version="1.1" xmlns="http://www.w3.org/2000/svg" xmlns:xlink="http://www.w3.org/1999/xlink">
    <!-- Generator: Sketch 42 (36781) - http://www.bohemiancoding.com/sketch -->
    <title>WEB/icon9</title>
    <desc>Created with Sketch.</desc>
    <defs></defs>
    <g id="Tablet-and-display" stroke="none" stroke-width="1" fill="none" fill-rule="evenodd">
        <g id="Desktop-landing-Copy-6" transform="translate(-988.000000, -3799.000000)" stroke="#4E76FF" stroke-width="1.8" fill="#4E76FF">
            <g id="WEB/icon9" transform="translate(989.000000, 3800.000000)">
                <path d="M22.1444978,22.194 C30.6327907,13.6845 41.9160092,9 53.9193375,9 C65.9226657,9 77.2058842,13.6845 85.6941771,22.194 C103.224347,39.7665 103.224347,68.355 85.6941771,85.9275 C77.2058842,94.4415 65.9226657,99.126 53.9193375,99.126 C41.9160092,99.126 30.6327907,94.4415 22.1444978,85.9275 C4.61882849,68.355 4.61882849,39.7665 22.1444978,22.194 M53.9193375,108.1215 C66.8948137,108.1215 79.1501804,103.518 88.9031658,95.1525 L136.313387,142.677 C137.191021,143.5635 138.347697,144 139.499872,144 C140.647547,144 141.799723,143.568 142.677356,142.686 C144.437124,140.9355 144.441625,138.0825 142.686358,136.323 L95.2356303,88.7625 C112.999836,67.5495 111.964678,35.784 92.0626471,15.84 C81.8730951,5.625 68.3260317,0 53.9148368,0 C39.5036418,0 25.9565784,5.625 15.7670265,15.84 C-5.25567549,36.9135 -5.25567549,71.208 15.7670265,92.2815 C25.9610791,102.4965 39.5081425,108.1215 53.9193375,108.1215" id="Fill-1"></path>
            </g>
        </g>
    </g>
</svg>