<?xml version="1.0" encoding="UTF-8"?>
<svg width="154px" height="154px" viewBox="0 0 154 154" version="1.1" xmlns="http://www.w3.org/2000/svg" xmlns:xlink="http://www.w3.org/1999/xlink">
    <!-- Generator: Sketch 42 (36781) - http://www.bohemiancoding.com/sketch -->
    <title>WEB/icon7</title>
    <desc>Created with Sketch.</desc>
    <defs></defs>
    <g id="Tablet-and-display" stroke="none" stroke-width="1" fill="none" fill-rule="evenodd">
        <g id="Desktop-landing-Copy-6" transform="translate(-301.000000, -3795.000000)">
            <g id="WEB/icon7" transform="translate(306.000000, 3800.000000)">
                <g id="Page-1">
                    <g id="Group-2">
                        <path d="M78.8244898,78.8244898 C75.0693878,82.5795918 69.4533878,82.5795918 65.6979592,78.8244898 C61.9428571,75.0693878 61.9428571,69.4533878 65.6979592,65.6979592 C69.4530612,61.9428571 75.0693878,61.9428571 78.8244898,65.6979592 C81.9591837,68.8326531 81.9591837,75.0693878 78.8244898,78.8244898 M60.7020408,60.7020408 C49.4693878,71.9346939 30.1061224,113.795918 30.1061224,113.795918 C30.1061224,113.795918 71.9673469,93.8122449 83.2,83.2 C94.4326531,72.5877551 113.795918,30.1061224 113.795918,30.1061224 C113.795918,30.1061224 71.9673469,50.0897959 60.7020408,60.7020408" id="Fill-1" fill="#4E76FF"></path>
                        <path d="M71.9673469,143.771429 C32,143.771429 0.163265306,111.934694 0.163265306,71.9673469 C0.163265306,32 32,0.163265306 71.9673469,0.163265306 C111.934694,0.163265306 143.771429,32 143.771429,71.9673469 C143.771429,111.934694 111.934694,143.771429 71.9673469,143.771429 Z" id="Stroke-3" stroke="#4E76FF" stroke-width="9"></path>
                    </g>
                </g>
            </g>
        </g>
    </g>
</svg>