<?xml version="1.0" encoding="UTF-8"?>
<svg width="121px" height="121px" viewBox="0 0 121 121" version="1.1" xmlns="http://www.w3.org/2000/svg" xmlns:xlink="http://www.w3.org/1999/xlink">
    <!-- Generator: Sketch 42 (36781) - http://www.bohemiancoding.com/sketch -->
    <title>WEB/icon8</title>
    <desc>Created with Sketch.</desc>
    <defs></defs>
    <g id="Tablet-and-display" stroke="none" stroke-width="1" fill="none" fill-rule="evenodd">
        <g id="Desktop-landing-Copy-6" transform="translate(-660.000000, -3812.000000)" fill-rule="nonzero" fill="#4E76FF">
            <g id="WEB/icon8" transform="translate(658.000000, 3810.000000)">
                <path d="M62.1644411,54.4206282 L27.651949,19.9484555 C25.5056311,17.804645 22.0357909,17.8147201 19.9018441,19.9709589 C17.7678973,22.1271977 17.7779261,25.6130764 19.924244,27.7568869 L54.3918064,62.1841825 L19.841719,96.6939066 C17.6954011,98.8377171 17.6853723,102.323596 19.8193191,104.479835 C21.9532659,106.636073 25.4231061,106.646149 27.5694241,104.502338 L62.1644411,69.9477367 L96.8813694,104.624107 C99.0276874,106.767917 102.497528,106.757842 104.631474,104.601603 C106.765421,102.445365 106.755392,98.9594859 104.609074,96.8156754 L69.9370758,62.1841825 L104.526549,27.6351181 C106.672867,25.4913076 106.682896,22.0054289 104.548949,19.8491901 C102.415003,17.6929513 98.9451624,17.6828762 96.7988445,19.8266867 L62.1644411,54.4206282 Z" id="Combined-Shape-Copy" transform="translate(62.225397, 62.225397) rotate(-315.000000) translate(-62.225397, -62.225397) "></path>
            </g>
        </g>
    </g>
</svg>