<?xml version="1.0" encoding="UTF-8"?>
<svg width="64px" height="64px" viewBox="0 0 50 40" version="1.1" xmlns="http://www.w3.org/2000/svg" xmlns:xlink="http://www.w3.org/1999/xlink">
    <!-- Generator: Sketch 42 (36781) - http://www.bohemiancoding.com/sketch -->
    <title>WEB/logo</title>
    <desc>Created with Sketch.</desc>
    <defs>
        <polygon id="path-1" points="48.2330502 0.36575 0 0.36575 0 43.6071429 48.2330502 43.6071429 48.2330502 0.36575"></polygon>
        <polygon id="path-3" points="16.3845 0.272289286 16.3845 20.6411464 0.00754285714 20.6411464 0.00754285714 0.272289286 16.3845 0.272289286"></polygon>
    </defs>
    <g id="Tablet-and-display" stroke="none" stroke-width="1" fill="none" fill-rule="evenodd">
        <g id="Desktop-landing-Copy-6" transform="translate(-57.000000, -96.000000)">
            <g id="WEB/logo" transform="translate(57.000000, 96.000000)">
                <g id="Page-1">
                    <path d="M21.7736048,22.9783714 C21.7566048,23.0003714 21.7736048,22.9783714 21.7736048,22.9783714" id="Fill-1" fill="#A21D52"></path>
                    <path d="M11.0871319,22.0251429 C11.0831319,22.0281429 11.0801319,22.0306429 11.0871319,22.0251429" id="Fill-3" fill="#A21D52"></path>
                    <path d="M11.0903714,22.02255 C11.0878714,22.02455 11.0873714,22.02455 11.0873714,22.02455 L11.0903714,22.02255 Z" id="Fill-5" fill="#A21D52"></path>
                    <path d="M17.7639153,22.4151714 C17.7609153,22.4176714 17.7599153,22.4181714 17.7639153,22.4151714" id="Fill-7" fill="#A21D52"></path>
                    <path d="M17.7696929,22.4114393 C17.7661929,22.4144393 17.7651929,22.4149393 17.7631929,22.4164393 C17.7661929,22.4139393 17.7696929,22.4114393 17.7696929,22.4114393" id="Fill-9" fill="#A21D52"></path>
                    <g id="Group-13" transform="translate(0.000000, 0.027107)">
                        <mask id="mask-2" fill="white">
                            <use xlink:href="#path-1"></use>
                        </mask>
                        <g id="Clip-12"></g>
                        <path d="M48.2060071,29.0641214 C48.0139,27.6910857 46.8255071,26.6555143 45.4402929,26.6555143 C45.3102571,26.6555143 45.1794357,26.6649429 45.0509714,26.6830143 C44.5430071,26.7537286 44.0468286,26.7894786 43.5769714,26.7894786 C41.8370071,26.7894786 40.3995429,26.3251214 39.1824714,25.3696929 C37.8777929,24.3451214 36.9400429,22.8393 36.2627571,21.2376214 C37.4008643,19.1798357 38.0156857,16.8604071 38.0156857,14.4576929 C38.0156857,6.68776429 31.7174,0.365514286 23.9718286,0.365514286 L17.1427929,0.365514286 C13.4024,0.365514286 9.87965,1.83755 7.22511429,4.51605 C4.57097143,7.17019286 3.09893571,10.7176929 3.09893571,14.4576929 C3.09893571,16.9539071 3.7554,19.2965143 4.89468571,21.3323 C2.7434,23.2808714 1.54950714,25.2231571 0.900507143,26.8165857 C-0.302028571,29.7681214 -0.300064286,32.91805 0.905614286,36.1791571 C1.03054286,36.5162286 1.16961429,36.8584071 1.31968571,37.1962643 C1.76754286,38.2059071 2.77050714,38.85805 3.87522143,38.85805 C4.2669,38.85805 4.64797143,38.7767286 5.00782857,38.6172286 C6.41582857,37.9929786 7.05343571,36.3382643 6.42879286,34.9294786 C5.46157857,32.7471571 5.34332857,30.7270857 6.07718571,28.9254429 C6.59261429,27.66005 7.49107857,26.54355 8.54786429,25.5786929 C8.67632857,25.6788714 8.80636429,25.7759071 8.93836429,25.8717643 C7.11865,29.9079786 7.05893571,34.6265857 8.68379286,40.3654429 C8.95761429,41.3338357 9.73586429,42.0834071 10.7144714,42.3206929 C10.93015,42.3733357 11.1509357,42.3996571 11.3721143,42.3996571 C11.6294357,42.3996571 11.8859714,42.3639071 12.1338643,42.2935857 C12.8508286,42.0904786 13.4471857,41.6194429 13.8113643,40.9673 C14.1763286,40.3143714 14.2651143,39.5600857 14.0624,38.8431214 C12.9478643,34.9055143 12.7820786,31.9009429 13.5402929,29.3878357 C13.6648286,28.9761214 13.8255071,28.5765857 14.0030786,28.1821571 C14.1889,28.2253714 14.3755071,28.2658357 14.5640786,28.3011929 C13.9076143,32.64855 15.10465,37.1876214 18.1693286,42.2578357 C18.6725786,43.0899071 19.5899,43.6073 20.5630071,43.6073 C20.5909,43.6073 20.6184,43.6065143 20.6462929,43.6053357 C21.1244,43.5915857 21.5954357,43.4525143 22.00715,43.2042286 C23.3263643,42.4063357 23.75065,40.6852286 22.9535429,39.3664071 C20.8364357,35.8640857 19.8814,33.0107643 19.9477929,30.3856929 C19.9631143,29.7716571 20.0401143,29.1611571 20.1717214,28.5498714 L20.68715,28.5498714 C20.9209,33.1887286 23.1967214,37.5152643 27.6230429,41.9121214 C28.15065,42.4354071 28.8499357,42.7237643 29.5924357,42.7237643 C29.6666857,42.7237643 29.7421143,42.7206214 29.8167571,42.7147286 C30.4810786,42.6613 31.1053286,42.3717643 31.5751857,41.8983714 C32.6614357,40.80505 32.6559357,39.0320857 31.5622214,37.9458357 C28.6590071,35.0618714 27.0400429,32.5255857 26.46765,29.9629786 C26.3494,29.4338 26.2849714,28.8936214 26.2547214,28.3448 C26.4118643,28.3188714 26.5713643,28.3031571 26.7265429,28.2717286 C28.2846143,32.3389786 31.52765,35.6869071 36.6241857,38.5999429 C37.0465071,38.8411571 37.5254,38.9688357 38.0094,38.9688357 C38.1614357,38.9688357 38.31465,38.9558714 38.4651143,38.9311214 C39.2999357,38.7936214 40.0188643,38.2939071 40.43765,37.5604429 C41.2025429,36.2223714 40.7358286,34.5114786 39.3977571,33.7465857 C35.84515,31.7163 33.6235429,29.6871929 32.4045071,27.3614786 C32.1904,26.9517286 32.0151857,26.5227286 31.8584357,26.0835143 C32.0037929,25.9837286 32.1424714,25.8717643 32.2842929,25.7660857 C33.3964714,27.62155 34.6253286,28.8991214 35.7304357,29.7661571 C37.9418286,31.5021929 40.5716143,32.3825857 43.5463286,32.3825857 C43.93565,32.3825857 44.3351857,32.3672643 44.7335429,32.3370143 C45.0898643,32.3103 45.4571857,32.2702286 45.8249,32.2191571 C47.35115,32.0058357 48.4189357,30.5907643 48.2060071,29.0641214" id="Fill-11" fill="#4E76FF" mask="url(#mask-2)"></path>
                    </g>
                    <path d="M28.1513964,14.098425 C28.1513964,19.2350321 23.5341464,23.3902821 17.820825,23.3902821 C12.1071107,23.3902821 7.48986071,19.2350321 7.48986071,14.098425 C7.48986071,8.96181786 12.1071107,4.80656786 17.820825,4.80656786 C23.5341464,4.80656786 28.1513964,8.96181786 28.1513964,14.098425" id="Fill-14" fill="#FFFFFF"></path>
                    <path d="M17.8207071,8.43499643 C16.9363857,8.43499643 16.0956714,8.59881786 15.33235,8.89385357 C15.6179571,9.29613929 15.7872786,9.786425 15.7872786,10.3167821 C15.7872786,11.6772464 14.6845286,12.7799964 13.3244571,12.7799964 C12.7721,12.7799964 12.2641357,12.5961393 11.8532071,12.288925 C11.6410643,12.8573893 11.5239929,13.4651393 11.5239929,14.098425 C11.5239929,17.2291036 14.3380286,19.7618536 17.8207071,19.7618536 C21.3033857,19.7618536 24.1174214,17.2291036 24.1174214,14.098425 C24.1174214,10.9677464 21.3033857,8.43499643 17.8207071,8.43499643" id="Fill-16" fill="#263145"></path>
                   
                </g>
            </g>
        </g>
    </g>
</svg>